<svg width="67" height="67" viewBox="0 0 67 67" fill="none" xmlns="http://www.w3.org/2000/svg">
<path d="M0 33.5C0 14.9985 14.9985 0 33.5 0C52.0015 0 67 14.9985 67 33.5C67 52.0015 52.0015 67 33.5 67C14.9985 67 0 52.0015 0 33.5Z" fill="#0C71F9"/>
<path d="M36.3883 44.3041L25.2422 33.5943C24.9191 33.2808 24.9191 32.7584 25.2422 32.4449L36.3883 21.7351C36.7114 21.4216 37.2498 21.4216 37.5729 21.7351L38.7575 22.8844C39.0806 23.1979 39.0806 23.7203 38.7575 24.0338L29.9806 32.4449C29.6575 32.7584 29.6575 33.2808 29.9806 33.5943L38.7575 42.0054C39.0806 42.3189 39.0806 42.8413 38.7575 43.1547L37.5729 44.3041C37.196 44.5653 36.7114 44.5653 36.3883 44.3041Z" fill="white"/>
</svg>
