<svg width="67" height="67" viewBox="0 0 67 67" fill="none" xmlns="http://www.w3.org/2000/svg">
<path d="M67 33.5C67 52.0015 52.0015 67 33.5 67C14.9985 67 0 52.0015 0 33.5C0 14.9985 14.9985 0 33.5 0C52.0015 0 67 14.9985 67 33.5Z" fill="#0C71F9"/>
<path d="M30.6117 22.6959L41.7578 33.4057C42.0809 33.7192 42.0809 34.2416 41.7578 34.5551L30.6117 45.2649C30.2886 45.5784 29.7502 45.5784 29.4271 45.2649L28.2425 44.1156C27.9194 43.8021 27.9194 43.2797 28.2425 42.9662L37.0194 34.5551C37.3425 34.2416 37.3425 33.7192 37.0194 33.4057L28.2425 24.9946C27.9194 24.6811 27.9194 24.1587 28.2425 23.8453L29.4271 22.6959C29.804 22.4347 30.2886 22.4347 30.6117 22.6959Z" fill="white"/>
</svg>
