<svg width="24" height="25" viewBox="0 0 24 25" fill="none" xmlns="http://www.w3.org/2000/svg">
<path d="M11.9556 2.08325C9.41399 2.08325 6.97643 3.18072 5.17921 5.13422C3.38198 7.08773 2.37231 9.73725 2.37231 12.4999C2.37231 15.2626 3.38198 17.9121 5.17921 19.8656C6.97643 21.8191 9.41399 22.9166 11.9556 22.9166C14.4973 22.9166 16.9349 21.8191 18.7321 19.8656C20.5293 17.9121 21.539 15.2626 21.539 12.4999C21.539 9.73725 20.5293 7.08773 18.7321 5.13422C16.9349 3.18072 14.4973 2.08325 11.9556 2.08325Z" fill="white"/>
<path d="M16.7234 7.81258L14.9284 17.774C14.9284 17.774 14.8513 18.2292 14.3318 18.2292C14.0558 18.2292 13.9135 18.0865 13.9135 18.0865L10.0256 14.5798L8.12327 13.5376L5.68192 12.8319C5.68192 12.8319 5.24731 12.6954 5.24731 12.3048C5.24731 11.9792 5.69438 11.824 5.69438 11.824L15.9083 7.41362C15.9083 7.41362 16.2202 7.29123 16.4478 7.29175C16.5878 7.29175 16.7473 7.35685 16.7473 7.55217C16.7473 7.68237 16.7234 7.81258 16.7234 7.81258Z" fill="black"/>
<path d="M11.4763 15.888L9.83468 17.6453C9.83468 17.6453 9.76328 17.7052 9.66793 17.7078C9.63486 17.7088 9.5994 17.7031 9.56299 17.6854L10.0249 14.5786L11.4763 15.888Z" fill="black"/>
<path d="M14.7813 9.47703C14.7003 9.36244 14.5508 9.34161 14.4454 9.42859L8.12231 13.5416C8.12231 13.5416 9.13144 16.6104 9.28525 17.1416C9.43954 17.6734 9.56317 17.6859 9.56317 17.6859L10.0251 14.5791L14.7363 9.84161C14.8417 9.75463 14.8613 9.59161 14.7813 9.47703Z" fill="white"/>
</svg>
