<svg width="19" height="21" viewBox="0 0 19 21" fill="none" xmlns="http://www.w3.org/2000/svg">
<g clip-path="url(#clip0_348_228)">
<path d="M17.3411 5.51562C16.3146 5.51562 15.3653 5.13672 14.606 4.5C13.7341 3.76953 13.1048 2.69531 12.8833 1.46094C12.8271 1.15625 12.7989 0.839844 12.7954 0.515625H9.85986V9.42578L9.85635 14.3047C9.85635 15.6094 9.08994 16.7148 8.03174 17.1055C7.72236 17.2188 7.39189 17.2734 7.04736 17.25C6.60439 17.2227 6.19307 17.0742 5.83096 16.8359C5.06455 16.3281 4.54775 15.4062 4.53369 14.3477C4.5126 12.6992 5.71143 11.3516 7.19502 11.3516C7.48682 11.3516 7.76807 11.4062 8.03174 11.5V9.06641V8.19531C7.754 8.14844 7.47275 8.125 7.18447 8.125C5.56025 8.125 4.0415 8.875 2.95518 10.2266C2.13604 11.2461 1.64385 12.5508 1.5665 13.918C1.46807 15.7109 2.05869 17.418 3.20479 18.6758C3.37354 18.8594 3.54932 19.0312 3.73565 19.1914C4.72002 20.0312 5.91885 20.4883 7.18447 20.4883C7.46924 20.4883 7.754 20.4648 8.03174 20.418C9.21299 20.2227 10.3028 19.6211 11.1642 18.6758C12.2224 17.5156 12.806 15.9727 12.813 14.332L12.7989 7.04297C13.3052 7.47656 13.8536 7.83203 14.4478 8.10938C15.3688 8.54297 16.3462 8.75781 17.3481 8.75781V6.39063V5.51172C17.3517 5.51562 17.3411 5.51562 17.3411 5.51562Z" fill="white"/>
</g>
<defs>
<clipPath id="clip0_348_228">
<rect width="18" height="20" fill="white" transform="translate(0.455566 0.5)"/>
</clipPath>
</defs>
</svg>
