<svg width="28" height="27" viewBox="0 0 28 27" fill="none" xmlns="http://www.w3.org/2000/svg">
<path d="M13.9556 2.25C10.9719 2.25 8.1104 3.43526 6.00062 5.54505C3.89083 7.65483 2.70557 10.5163 2.70557 13.5C2.70557 16.4837 3.89083 19.3452 6.00062 21.455C8.1104 23.5647 10.9719 24.75 13.9556 24.75C16.9393 24.75 19.8007 23.5647 21.9105 21.455C24.0203 19.3452 25.2056 16.4837 25.2056 13.5C25.2056 10.5163 24.0203 7.65483 21.9105 5.54505C19.8007 3.43526 16.9393 2.25 13.9556 2.25Z" fill="#FEFEFF"/>
<path d="M20.6701 10.1481C20.696 10.0631 20.7084 9.98438 20.705 9.91406C20.6966 9.71044 20.5565 9.5625 20.2269 9.5625H18.7543C18.3824 9.5625 18.2109 9.7875 18.1108 10.0131C18.1108 10.0131 17.1928 11.9025 16.1347 13.1484C15.7916 13.509 15.6172 13.5 15.4316 13.5C15.332 13.5 15.0806 13.3796 15.0806 13.0494V10.1329C15.0806 9.7425 14.9833 9.5625 14.6688 9.5625H12.0538C11.8248 9.5625 11.7056 9.7425 11.7056 9.92306C11.7056 10.2983 12.2107 10.3882 12.2681 11.4396V13.4775C12.2681 13.9725 12.182 14.0625 11.9964 14.0625C11.4958 14.0625 10.5103 12.375 9.85044 10.1633C9.70757 9.72788 9.56469 9.5625 9.19288 9.5625H7.70619C7.277 9.5625 7.20557 9.77288 7.20557 9.99788C7.20557 10.4034 7.54307 12.5961 9.38525 15.1172C10.7212 16.9453 12.4813 18 14.0394 18C14.9833 18 15.08 17.7598 15.08 17.3846V15.7129C15.0806 15.2623 15.1835 15.1875 15.4839 15.1875C15.6982 15.1875 16.1353 15.3281 16.979 16.3125C17.9521 17.4476 18.1288 18 18.6868 18H20.1594C20.5014 18 20.6977 17.8566 20.7056 17.5781C20.7073 17.5072 20.6971 17.4279 20.6741 17.3396C20.5649 17.0156 20.0643 16.2236 19.4399 15.4688C19.094 15.0508 18.7526 14.6368 18.5956 14.4118C18.4904 14.265 18.4505 14.1615 18.4556 14.0625C18.4606 13.9584 18.5146 13.8594 18.5956 13.7211C18.581 13.7211 20.4845 11.0486 20.6701 10.1481Z" fill="black"/>
</svg>
