<svg width="23" height="25" viewBox="0 0 23 25" fill="none" xmlns="http://www.w3.org/2000/svg">
<path d="M20.2555 17.6562C20.0722 18.75 19.293 19.5833 18.3305 19.7396C16.818 20 14.2972 20.3125 11.4555 20.3125C8.65965 20.3125 6.13882 20 4.58048 19.7396C3.61799 19.5833 2.83882 18.75 2.65549 17.6562C2.47215 16.4583 2.28882 14.6875 2.28882 12.5C2.28882 10.3125 2.47215 8.54167 2.65549 7.34375C2.83882 6.25 3.61799 5.41667 4.58048 5.26042C6.09298 5 8.61382 4.6875 11.4555 4.6875C14.2972 4.6875 16.7722 5 18.3305 5.26042C19.293 5.41667 20.0722 6.25 20.2555 7.34375C20.4388 8.54167 20.668 10.3125 20.668 12.5C20.6222 14.6875 20.4388 16.4583 20.2555 17.6562Z" fill="white"/>
<path d="M9.62231 16.1459V8.85425L15.1223 12.5001L9.62231 16.1459Z" fill="black"/>
</svg>
