<svg height="50px" viewBox="0 0 1127 374" fill="none" xmlns="http://www.w3.org/2000/svg">
<path d="M215.632 78.2895H346.072C367.812 78.2895 380.235 90.7124 380.235 109.347V267.738C380.235 286.372 367.812 298.795 346.072 298.795C324.332 298.795 311.909 286.372 311.909 267.738V140.404H249.795V267.738C249.795 286.372 237.372 298.795 215.632 298.795C193.892 298.795 181.469 286.372 181.469 267.738V109.347C181.469 90.7124 193.892 78.2895 215.632 78.2895Z" fill="#2B2A29"/>
<path d="M1120.98 193.862C1120.98 214.439 1110 225.413 1088.05 233.644L1022.21 258.336C1022.21 258.336 1005.75 265.195 996.145 265.195C979.683 265.195 970.081 255.593 970.081 241.875C970.081 226.785 978.312 218.829 997.517 213.067L1052.39 195.234V192.491L997.517 174.657C978.312 169.445 970.081 162.311 970.081 145.85C970.081 132.132 981.055 122.529 996.145 122.529C1005.75 122.529 1022.21 129.388 1022.21 129.388L1088.05 154.081C1108.63 160.939 1120.98 173.286 1120.98 193.862Z" fill="#0074FF"/>
<path d="M448.373 218.012H467.29C477.799 218.012 484.104 211.707 484.104 204.35C484.104 196.994 477.799 190.689 467.29 190.689H448.373V218.012ZM467.29 255.845H448.373V281.066C448.373 293.677 439.966 302.084 425.253 302.084C410.541 302.084 402.134 293.677 402.134 281.066V173.874C402.134 161.263 410.541 152.856 425.253 152.856H467.29C509.326 152.856 532.445 175.976 532.445 204.35C532.445 232.725 509.326 255.845 467.29 255.845ZM685.893 211.707V241.132C685.893 276.863 658.57 304.186 615.483 304.186C572.396 304.186 545.073 276.863 545.073 241.132V211.707C545.073 175.976 572.396 148.653 615.483 148.653C658.57 148.653 685.893 175.976 685.893 211.707ZM638.603 241.132V211.707C638.603 194.892 628.094 184.383 615.483 184.383C602.872 184.383 592.363 194.892 592.363 211.707V241.132C592.363 257.946 602.872 268.455 615.483 268.455C628.094 268.455 638.603 257.946 638.603 241.132ZM731.082 152.856H802.544C817.256 152.856 825.663 161.263 825.663 173.874C825.663 186.485 817.256 194.892 802.544 194.892H754.202V281.066C754.202 293.677 745.795 302.084 731.082 302.084C716.37 302.084 707.962 293.677 707.962 281.066V173.874C707.962 161.263 716.37 152.856 731.082 152.856ZM871.887 230.623H897.108L885.548 199.096H883.446L871.887 230.623ZM862.428 268.455L857.174 281.066C851.919 293.677 843.512 302.084 831.952 302.084C818.291 302.084 808.832 292.626 808.832 281.066C808.832 274.761 814.087 262.15 814.087 262.15L847.716 173.874C854.021 158.111 863.479 148.653 884.497 148.653C905.515 148.653 915.184 158.111 921.279 173.874L954.908 262.15C954.908 262.15 960.162 274.761 960.162 281.066C960.162 292.626 950.704 302.084 937.042 302.084C925.483 302.084 917.075 293.677 911.821 281.066L906.566 268.455H862.428Z" fill="#2B2A29"/>
<path d="M6.15825 193.862C6.15825 214.439 17.1326 225.413 39.0811 233.644L104.927 258.336C104.927 258.336 121.388 265.195 130.991 265.195C147.452 265.195 157.055 255.593 157.055 241.875C157.055 226.785 148.824 218.829 129.619 213.067L74.7476 195.234V192.491L129.619 174.657C148.824 169.445 157.055 162.311 157.055 145.85C157.055 132.132 146.081 122.529 130.991 122.529C121.388 122.529 104.927 129.388 104.927 129.388L39.0811 154.081C18.5043 160.939 6.15825 173.286 6.15825 193.862Z" fill="#0074FF"/>
</svg>
