<svg height="50px" viewBox="0 0 1256 381" fill="none" xmlns="http://www.w3.org/2000/svg">
<path d="M1180.22 36.4043H76.1472C34.3997 36.4043 0.556641 70.2473 0.556641 111.995V304.484C0.556641 346.232 34.3997 380.075 76.1472 380.075H1180.22C1221.96 380.075 1255.81 346.232 1255.81 304.484V111.995C1255.81 70.2473 1221.96 36.4043 1180.22 36.4043Z" fill="#0074FF"/>
<path d="M263.632 77.5981H394.072C415.812 77.5981 428.235 90.0209 428.235 108.655V267.047C428.235 285.681 415.812 298.104 394.072 298.104C372.332 298.104 359.909 285.681 359.909 267.047V139.712H297.795V267.047C297.795 285.681 285.372 298.104 263.632 298.104C241.892 298.104 229.469 285.681 229.469 267.047V108.655C229.469 90.0209 241.892 77.5981 263.632 77.5981Z" fill="white"/>
<path d="M1168.98 193.171C1168.98 213.748 1158 224.722 1136.05 232.953L1070.21 257.645C1070.21 257.645 1053.75 264.504 1044.14 264.504C1027.68 264.504 1018.08 254.901 1018.08 241.184C1018.08 226.094 1026.31 218.137 1045.52 212.376L1100.39 194.543V191.799L1045.52 173.966C1026.31 168.753 1018.08 161.62 1018.08 145.158C1018.08 131.441 1029.06 121.838 1044.14 121.838C1053.75 121.838 1070.21 128.697 1070.21 128.697L1136.05 153.389C1156.63 160.248 1168.98 172.594 1168.98 193.171Z" fill="white"/>
<path d="M496.373 217.321H515.29C525.799 217.321 532.104 211.015 532.104 203.659C532.104 196.303 525.799 189.997 515.29 189.997H496.373V217.321ZM515.29 255.153H496.373V280.375C496.373 292.986 487.966 301.393 473.253 301.393C458.541 301.393 450.134 292.986 450.134 280.375V173.183C450.134 160.572 458.541 152.165 473.253 152.165H515.29C557.326 152.165 580.445 175.285 580.445 203.659C580.445 232.033 557.326 255.153 515.29 255.153ZM733.893 211.015V240.441C733.893 276.171 706.57 303.495 663.483 303.495C620.396 303.495 593.073 276.171 593.073 240.441V211.015C593.073 175.285 620.396 147.961 663.483 147.961C706.57 147.961 733.893 175.285 733.893 211.015ZM686.603 240.441V211.015C686.603 194.201 676.094 183.692 663.483 183.692C650.872 183.692 640.363 194.201 640.363 211.015V240.441C640.363 257.255 650.872 267.764 663.483 267.764C676.094 267.764 686.603 257.255 686.603 240.441ZM779.082 152.165H850.544C865.256 152.165 873.663 160.572 873.663 173.183C873.663 185.794 865.256 194.201 850.544 194.201H802.202V280.375C802.202 292.986 793.795 301.393 779.082 301.393C764.37 301.393 755.962 292.986 755.962 280.375V173.183C755.962 160.572 764.37 152.165 779.082 152.165ZM919.887 229.932H945.108L933.548 198.404H931.446L919.887 229.932ZM910.428 267.764L905.174 280.375C899.919 292.986 891.512 301.393 879.952 301.393C866.291 301.393 856.832 291.935 856.832 280.375C856.832 274.069 862.087 261.459 862.087 261.459L895.716 173.183C902.021 157.419 911.479 147.961 932.497 147.961C953.515 147.961 963.184 157.419 969.279 173.183L1002.91 261.459C1002.91 261.459 1008.16 274.069 1008.16 280.375C1008.16 291.935 998.704 301.393 985.042 301.393C973.483 301.393 965.075 292.986 959.821 280.375L954.566 267.764H910.428Z" fill="white"/>
<path d="M54.1582 193.173C54.1582 213.75 65.1326 224.724 87.0811 232.955L152.927 257.647C152.927 257.647 169.388 264.506 178.991 264.506C195.452 264.506 205.055 254.903 205.055 241.185C205.055 226.096 196.824 218.139 177.619 212.378L122.748 194.545V191.801L177.619 173.968C196.824 168.755 205.055 161.622 205.055 145.16C205.055 131.443 194.081 121.84 178.991 121.84C169.388 121.84 152.927 128.699 152.927 128.699L87.0811 153.391C66.5043 160.25 54.1582 172.596 54.1582 193.173Z" fill="white"/>
</svg>
