<svg width="777" height="777" viewBox="0 0 777 777" fill="none" xmlns="http://www.w3.org/2000/svg">
<path d="M709.767 445.863C661.383 631.291 201.436 628.452 158.322 538.91C115.209 449.368 124.172 413.206 126.541 346.163C128.909 279.12 185.067 163.589 329.929 101.812C474.791 40.0352 488.524 165.575 524.819 195.717C561.115 225.858 758.151 260.434 709.767 445.863Z" fill="url(#paint0_linear_282_300)" fill-opacity="0.3"/>
<path d="M658.511 233.56C763.642 377.897 487.121 627.786 359.479 612.364C231.837 596.941 241.931 587.493 193.601 545.122C145.271 502.752 84.6047 404.613 137.418 272.978C190.232 141.343 298.75 206.425 345.969 201.229C393.187 196.033 553.381 89.224 658.511 233.56Z" fill="url(#paint1_linear_282_300)"/>
<path d="M254.318 191.632C254.318 191.632 253.765 126.924 360.439 115.215C467.113 103.507 509.423 133.313 568.062 167.205" stroke="url(#paint2_linear_282_300)"/>
<path d="M470.892 579.904C470.892 579.904 355.014 659.98 273.571 626.852C192.128 593.725 163.559 548.972 163.399 510.228" stroke="url(#paint3_linear_282_300)"/>
<defs>
<linearGradient id="paint0_linear_282_300" x1="658.532" y1="622.566" x2="147.1" y2="100.922" gradientUnits="userSpaceOnUse">
<stop stop-color="#4588E3"/>
<stop offset="1" stop-color="#1E79F5"/>
</linearGradient>
<linearGradient id="paint1_linear_282_300" x1="755.197" y1="374.432" x2="18.1888" y2="402.895" gradientUnits="userSpaceOnUse">
<stop stop-color="#4689E3"/>
<stop offset="1" stop-color="#1E79F5"/>
</linearGradient>
<linearGradient id="paint2_linear_282_300" x1="251.266" y1="165.284" x2="563.648" y2="129.099" gradientUnits="userSpaceOnUse">
<stop stop-color="#2B7EEF"/>
<stop offset="1" stop-color="#3C85E7"/>
</linearGradient>
<linearGradient id="paint3_linear_282_300" x1="210.452" y1="748.906" x2="67.8882" y2="555.932" gradientUnits="userSpaceOnUse">
<stop stop-color="#3984E8"/>
<stop offset="1" stop-color="#287DF0"/>
</linearGradient>
</defs>
</svg>
