<svg width="83" height="101" viewBox="0 0 83 101" fill="none" xmlns="http://www.w3.org/2000/svg">
<g clip-path="url(#clip0_368_12)">
<path d="M41.0058 0.000689448C37.5833 0.0166628 34.315 0.309849 31.4392 0.820993C22.9674 2.32435 21.4292 5.47102 21.4292 11.274V18.938H41.4491V21.4926H21.4292H13.9159C8.09761 21.4926 3.00291 25.0054 1.40935 31.6878C-0.428797 39.3475 -0.510329 44.1272 1.40935 52.1251C2.83244 58.0785 6.23096 62.3203 12.0493 62.3203H18.9326V53.1329C18.9326 46.4956 24.6499 40.6409 31.4392 40.6409H51.4357C57.0021 40.6409 61.4457 36.0373 61.4457 30.4222V11.274C61.4457 5.82431 56.8686 1.73053 51.4357 0.820993C47.9966 0.245955 44.4282 -0.0152841 41.0058 0.000689448ZM30.1792 6.16469C32.2471 6.16469 33.9358 7.88865 33.9358 10.0084C33.9358 12.1206 32.2471 13.8287 30.1792 13.8287C28.1039 13.8287 26.4225 12.1206 26.4225 10.0084C26.4225 7.88865 28.1039 6.16469 30.1792 6.16469Z" fill="url(#paint0_linear_368_12)"/>
<path d="M63.9423 21.4926V30.4222C63.9423 37.3452 58.099 43.1721 51.4357 43.1721H31.4391C25.9618 43.1721 21.4292 47.8809 21.4292 53.3907V72.539C21.4292 77.9887 26.1471 81.1941 31.4391 82.7576C37.7763 84.6293 43.8533 84.9676 51.4357 82.7576C56.4758 81.2918 61.4456 78.342 61.4456 72.539V64.875H41.4491V62.3203H61.4456H71.4556C77.2739 62.3203 79.4421 58.2438 81.4655 52.1251C83.5557 45.826 83.4667 39.7684 81.4655 31.6878C80.0276 25.8698 77.2813 21.4926 71.4556 21.4926H63.9423ZM52.6957 69.9843C54.771 69.9843 56.4523 71.6924 56.4523 73.8046C56.4523 75.9243 54.771 77.6483 52.6957 77.6483C50.6278 77.6483 48.939 75.9243 48.939 73.8046C48.939 71.6924 50.6278 69.9843 52.6957 69.9843Z" fill="url(#paint1_linear_368_12)"/>
</g>
<defs>
<linearGradient id="paint0_linear_368_12" x1="-2.49406e-07" y1="-2.17618e-07" x2="46.3363" y2="39.3097" gradientUnits="userSpaceOnUse">
<stop stop-color="#5A9FD4"/>
<stop offset="1" stop-color="#306998"/>
</linearGradient>
<linearGradient id="paint1_linear_368_12" x1="52.2146" y1="73.1603" x2="35.555" y2="49.9189" gradientUnits="userSpaceOnUse">
<stop stop-color="#FFD43B"/>
<stop offset="1" stop-color="#FFE873"/>
</linearGradient>
<clipPath id="clip0_368_12">
<rect width="83" height="101" fill="white"/>
</clipPath>
</defs>
</svg>
