<svg width="88" height="88" viewBox="0 0 88 88" fill="none" xmlns="http://www.w3.org/2000/svg">
<g clip-path="url(#clip0_368_67)">
<path fill-rule="evenodd" clip-rule="evenodd" d="M18.1483 0H18.1829C26.5213 2.19423 34.8885 4.31916 43.2326 6.51339C44.8484 6.93491 46.4757 7.33911 48.0914 7.77218C51.3402 8.58635 54.5659 9.46982 57.8089 10.284C60.7461 11.0577 63.689 11.8142 66.632 12.5764C70.6194 13.6042 74.601 14.6609 78.5884 15.6714C80.36 16.1449 82.1373 16.601 83.9146 17.0572C85.2707 17.4037 86.621 17.779 87.977 18.1139C81.9411 41.3958 75.8878 64.6777 69.8519 87.9654C68.894 87.7402 67.9477 87.4688 66.9898 87.2205C52.8232 83.5654 38.6682 79.864 24.5016 76.2089C21.1547 75.3255 17.8021 74.4651 14.4552 73.5989C12.2278 72.9984 9.98306 72.4556 7.75565 71.8609C5.17624 71.1911 2.6026 70.5213 0.0231934 69.8514C3.26621 57.3444 6.515 44.843 9.76378 32.336C12.5509 21.5554 15.3669 10.7806 18.1483 0ZM38.9682 35.4714C37.8026 39.9753 36.6197 44.4735 35.4598 48.9774C39.955 50.1438 44.4444 51.3276 48.9397 52.4882C50.1053 47.9843 51.2882 43.4861 52.4481 38.9822C50.2322 38.4105 48.0221 37.8215 45.8063 37.2556C45.0273 37.0709 44.2598 36.8226 43.4692 36.6436C41.9689 36.2625 40.4743 35.8467 38.9682 35.4714Z" fill="#E2231A"/>
</g>
<defs>
<clipPath id="clip0_368_67">
<rect width="88" height="88" fill="white"/>
</clipPath>
</defs>
</svg>
