<svg width="88" height="92" viewBox="0 0 88 92" fill="none" xmlns="http://www.w3.org/2000/svg">
<path fill-rule="evenodd" clip-rule="evenodd" d="M20.1978 67.7261C18.0016 67.2684 15.3478 66.5362 13.1516 64.5225C8.11853 60.0375 6.56287 52.6235 3.08549 54.5456C-0.48339 56.4678 -0.39188 68.4583 10.7723 72.1196C14.6157 73.401 18.0931 73.401 20.9299 73.3095C21.662 73.3095 27.9762 72.6687 30.1724 69.5567C32.3686 66.4446 30.813 65.6209 30.0809 65.2547C29.2573 64.7971 23.3092 68.2753 20.1978 67.7261Z" fill="#FFAB19" stroke="#001026" stroke-linecap="round" stroke-linejoin="round"/>
<path fill-rule="evenodd" clip-rule="evenodd" d="M3.63475 54.7287C1.80455 55.2778 0.889456 59.1221 1.80455 62.3257C2.71965 65.5293 4.18381 67.1769 5.37344 68.3668C5.19042 67.7261 4.82438 65.7124 6.38004 64.5225C8.30175 62.9664 11.6876 63.7902 11.6876 63.7902C11.6876 63.7902 8.85081 60.312 7.38665 57.8407C5.9225 55.7355 5.46495 54.3625 3.63475 54.7287Z" fill="white"/>
<path fill-rule="evenodd" clip-rule="evenodd" d="M34.6564 74.774C33.0093 75.8723 27.3357 79.8997 20.1064 82.188L19.7403 82.2795C19.3743 82.371 19.1913 82.8287 19.3743 83.1948C20.93 85.3916 23.7668 89.7851 18.7337 91.3411C13.8837 92.8971 4.82424 79.9912 8.66766 76.6046C10.4063 75.3232 11.962 75.9639 12.7856 76.33C13.2431 76.5131 13.7007 76.5131 14.1582 76.4215C15.2564 76.0554 17.2696 75.3232 18.8252 74.4994C22.7602 72.4857 23.6753 71.6619 25.5055 70.289C27.3357 68.916 31.5451 65.5293 34.931 68.4583C37.8593 70.9297 36.2121 73.6756 34.6564 74.774ZM49.2065 55.7355C49.6641 56.1017 55.2462 62.6919 57.0764 61.0443C59.2726 59.1222 62.2924 55.3694 65.5868 58.3899C68.8811 61.4105 62.6585 66.5362 60.0047 67.9092C53.6905 70.7466 48.5659 65.3463 47.4678 63.8818C46.3697 62.4173 44.448 59.946 44.448 57.5662C44.5395 55.0033 47.6508 54.3626 49.2065 55.7355Z" fill="#FFAB19" stroke="#001026" stroke-linecap="round" stroke-linejoin="round"/>
<path fill-rule="evenodd" clip-rule="evenodd" d="M42.4348 70.3805C43.5329 69.5567 44.6311 68.1837 46.0952 66.0785C47.2848 64.3394 48.566 60.9528 48.566 60.9528C49.3896 58.6645 49.9386 54.271 46.9188 54.3625C44.9056 54.4541 43.0754 54.1795 39.9641 53.7218C34.4735 52.6235 33.4669 51.8912 31.1791 55.644C28.7083 60.0375 22.3942 63.241 30.1725 70.8381C30.1725 70.8381 34.6565 74.3163 40.0556 79.6251C43.716 83.1948 49.4811 88.3205 51.4943 90.0596C51.9518 90.4257 52.5009 90.6088 53.05 90.7003C61.9264 91.5241 68.5151 90.6088 68.5151 86.673C68.5151 80.0827 55.4292 82.371 55.4292 82.371C55.4292 82.371 51.2198 78.8013 49.2981 77.0622L42.4348 70.3805Z" fill="#FFAB19" stroke="#001026" stroke-linecap="round" stroke-linejoin="round"/>
<path fill-rule="evenodd" clip-rule="evenodd" d="M46.4611 64.2479C46.4611 64.2479 48.1998 61.9596 44.2649 59.4883C40.147 56.8339 38.5913 59.7629 36.9441 61.9596C35.1139 64.7971 36.9441 66.17 38.7743 67.8176C40.2385 69.1905 41.6111 70.2889 41.6111 70.2889C41.6111 70.2889 44.4479 68.3668 46.4611 64.2479Z" fill="white"/>
<path fill-rule="evenodd" clip-rule="evenodd" d="M27.793 62.7834C29.8062 65.3463 32.9175 68.5498 28.9826 71.2042C23.5835 74.2248 19.0996 65.0717 18.1845 61.8681C17.3609 59.0306 19.7401 57.2 21.7533 55.644C25.6883 52.8065 28.9826 50.2436 32.643 51.6166C37.2185 53.2642 33.9242 56.9254 31.6364 58.573C30.2638 59.5798 28.8911 60.6782 27.8845 61.3189C27.61 61.7766 27.5185 62.3257 27.793 62.7834Z" fill="#FFAB19" stroke="#001026" stroke-linecap="round" stroke-linejoin="round"/>
<path fill-rule="evenodd" clip-rule="evenodd" d="M48.7488 8.41401C46.644 8.04788 44.4478 7.86482 41.8855 8.04788C37.5846 8.23095 33.4666 9.78697 33.4666 9.78697L22.3939 2.55603C22.0279 2.37296 21.5704 2.64756 21.6619 3.01368L23.5836 19.3977C24.1326 18.6655 13.8835 31.1137 20.3807 41.5482C26.8779 51.9827 40.6959 56.6508 57.8998 53.2642C75.1036 49.8775 79.13 39.9922 78.0319 34.7749C76.9338 29.5577 70.4366 27.6355 70.4366 27.6355C70.4366 27.6355 70.3451 23.5166 67.4168 18.4824C65.6781 15.4619 59.8215 11.1599 59.8215 11.1599L57.4422 1.36612C57.3507 1 56.8932 0.908469 56.6186 1.09153L48.7488 8.41401Z" fill="#FFAB19" stroke="#001026"/>
<path fill-rule="evenodd" clip-rule="evenodd" d="M70.1622 28.0017C70.1622 28.0017 76.4763 29.6492 77.5745 34.8665C78.6726 40.0837 74.2801 49.5114 57.2593 52.8065C35.1139 57.3831 24.5903 44.2026 30.7214 34.5003C36.8526 24.7065 47.3762 33.0359 55.063 32.4867C61.6517 32.029 62.3838 26.2626 70.1622 28.0017Z" fill="white"/>
<path fill-rule="evenodd" clip-rule="evenodd" d="M41.3365 37.7954C41.3365 37.4293 41.7025 37.1547 42.0686 37.2463C43.8073 37.887 48.7488 39.3515 54.2394 39.7176C59.1809 39.9922 62.1092 39.7176 63.4819 39.443C63.9394 39.3515 64.3055 39.8091 64.1225 40.2668C63.2989 42.7381 59.8215 49.6029 50.213 49.0538C41.8856 48.1384 41.062 42.2805 41.3365 37.7954Z" fill="white" stroke="#001026" stroke-linecap="round" stroke-linejoin="round"/>
<path d="M76.1104 32.5782C76.1104 32.5782 82.6991 32.4867 87 29.0085M76.4764 37.9785C76.4764 37.9785 80.0453 39.7176 85.8104 39.26" stroke="#001026" stroke-linecap="round" stroke-linejoin="round"/>
<path fill-rule="evenodd" clip-rule="evenodd" d="M54.697 30.1068C56.6187 30.1068 58.632 30.2899 58.7235 30.9306C58.815 32.2121 57.4423 34.7749 55.9782 34.8665C54.331 35.0495 50.4876 32.7612 50.4876 31.2967C50.3961 30.1984 52.8668 30.1068 54.697 30.1068Z" fill="#001026" stroke="#001026" stroke-linecap="round" stroke-linejoin="round"/>
<path d="M13.5176 28.7339C13.5176 28.7339 21.3874 31.2968 24.5903 34.1342M14.1581 37.887C14.1581 37.887 20.9299 38.8938 24.8648 37.3378" stroke="#001026" stroke-linecap="round" stroke-linejoin="round"/>
<path fill-rule="evenodd" clip-rule="evenodd" d="M65.4952 19.3977C68.149 23.5166 68.2405 28.1847 65.6782 29.8323C63.1159 31.4798 58.9065 29.5577 56.1612 25.4388C53.5074 21.3199 53.4159 16.6518 55.9782 15.0042C58.5404 13.2652 62.8414 15.2788 65.4952 19.3977Z" fill="white" stroke="#001026" stroke-linecap="round" stroke-linejoin="round"/>
<path fill-rule="evenodd" clip-rule="evenodd" d="M65.1291 24.615C65.1291 25.6218 64.397 26.4456 63.4819 26.4456C62.5668 26.4456 61.8347 25.6218 61.8347 24.615C61.8347 23.6081 62.5668 22.7844 63.4819 22.7844C64.397 22.7844 65.1291 23.6081 65.1291 24.615Z" fill="#001026"/>
<path fill-rule="evenodd" clip-rule="evenodd" d="M42.8008 21.9606C45.5461 25.988 45.363 30.9306 42.8923 32.6697C39.8724 34.4088 35.846 33.1274 33.1007 29.1C30.2639 25.0726 30.0809 19.8554 32.9177 17.8417C35.7545 15.7365 40.0555 17.9332 42.8008 21.9606Z" fill="white" stroke="#001026" stroke-linecap="round" stroke-linejoin="round"/>
<path fill-rule="evenodd" clip-rule="evenodd" d="M42.2519 27.2694C42.2519 28.2762 41.5198 29.1 40.6047 29.1C39.6896 29.1 38.9575 28.2762 38.9575 27.2694C38.9575 26.2626 39.6896 25.4388 40.6047 25.4388C41.5198 25.5303 42.2519 26.2626 42.2519 27.2694Z" fill="#001026"/>
</svg>
