<svg width="23" height="25" viewBox="0 0 23 25" fill="none" xmlns="http://www.w3.org/2000/svg">
<path d="M11.5001 2.0835C8.95842 2.0835 6.52086 3.18096 4.72364 5.13447C2.92642 7.08797 1.91675 9.73749 1.91675 12.5002C1.91675 15.2628 2.92642 17.9124 4.72364 19.8659C6.52086 21.8194 8.95842 22.9168 11.5001 22.9168C14.0417 22.9168 16.4793 21.8194 18.2765 19.8659C20.0737 17.9124 21.0834 15.2628 21.0834 12.5002C21.0834 9.73749 20.0737 7.08797 18.2765 5.13447C16.4793 3.18096 14.0417 2.0835 11.5001 2.0835Z" fill="white"/>
<path d="M16.2678 7.81234L14.4728 17.7738C14.4728 17.7738 14.3957 18.229 13.8763 18.229C13.6003 18.229 13.458 18.0863 13.458 18.0863L9.57 14.5795L7.66771 13.5373L5.22635 12.8316C5.22635 12.8316 4.79175 12.6952 4.79175 12.3045C4.79175 11.979 5.23881 11.8238 5.23881 11.8238L15.4527 7.41338C15.4527 7.41338 15.7647 7.29098 15.9923 7.29151C16.1322 7.29151 16.2917 7.35661 16.2917 7.55192C16.2917 7.68213 16.2678 7.81234 16.2678 7.81234Z" fill="black"/>
<path d="M11.0207 15.888L9.37911 17.6453C9.37911 17.6453 9.30771 17.7052 9.21236 17.7078C9.1793 17.7088 9.14384 17.7031 9.10742 17.6854L9.56934 14.5786L11.0207 15.888Z" fill="black"/>
<path d="M14.3257 9.47703C14.2447 9.36244 14.0952 9.34161 13.9898 9.42859L7.66675 13.5416C7.66675 13.5416 8.67587 16.6104 8.82969 17.1416C8.98398 17.6734 9.1076 17.6859 9.1076 17.6859L9.56952 14.5791L14.2807 9.84161C14.3861 9.75463 14.4057 9.59161 14.3257 9.47703Z" fill="white"/>
</svg>
