<svg width="18" height="20" viewBox="0 0 18 20" fill="none" xmlns="http://www.w3.org/2000/svg">
<path d="M16.8855 5.01562C15.859 5.01562 14.9098 4.63672 14.1504 4C13.2785 3.26953 12.6492 2.19531 12.4277 0.960938C12.3715 0.65625 12.3434 0.339844 12.3398 0.015625H9.4043V8.92578L9.40078 13.8047C9.40078 15.1094 8.63438 16.2148 7.57617 16.6055C7.2668 16.7188 6.93633 16.7734 6.5918 16.75C6.14883 16.7227 5.7375 16.5742 5.37539 16.3359C4.60898 15.8281 4.09219 14.9062 4.07813 13.8477C4.05703 12.1992 5.25586 10.8516 6.73945 10.8516C7.03125 10.8516 7.3125 10.9062 7.57617 11V8.56641V7.69531C7.29844 7.64844 7.01719 7.625 6.72891 7.625C5.10469 7.625 3.58594 8.375 2.49961 9.72656C1.68047 10.7461 1.18828 12.0508 1.11094 13.418C1.0125 15.2109 1.60313 16.918 2.74922 18.1758C2.91797 18.3594 3.09375 18.5312 3.28008 18.6914C4.26445 19.5312 5.46328 19.9883 6.72891 19.9883C7.01367 19.9883 7.29844 19.9648 7.57617 19.918C8.75742 19.7227 9.84727 19.1211 10.7086 18.1758C11.7668 17.0156 12.3504 15.4727 12.3574 13.832L12.3434 6.54297C12.8496 6.97656 13.398 7.33203 13.9922 7.60938C14.9133 8.04297 15.8906 8.25781 16.8926 8.25781V5.89063V5.01172C16.8961 5.01562 16.8855 5.01562 16.8855 5.01562Z" fill="white"/>
</svg>
