<svg width="27" height="27" viewBox="0 0 27 27" fill="none" xmlns="http://www.w3.org/2000/svg">
<path d="M13.5 2.25C10.5163 2.25 7.65483 3.43526 5.54505 5.54505C3.43526 7.65483 2.25 10.5163 2.25 13.5C2.25 16.4837 3.43526 19.3452 5.54505 21.455C7.65483 23.5647 10.5163 24.75 13.5 24.75C16.4837 24.75 19.3452 23.5647 21.455 21.455C23.5647 19.3452 24.75 16.4837 24.75 13.5C24.75 10.5163 23.5647 7.65483 21.455 5.54505C19.3452 3.43526 16.4837 2.25 13.5 2.25Z" fill="#FEFEFF"/>
<path d="M20.2146 10.1481C20.2404 10.0631 20.2528 9.98438 20.2494 9.91406C20.241 9.71044 20.1009 9.5625 19.7713 9.5625H18.2987C17.9269 9.5625 17.7553 9.7875 17.6552 10.0131C17.6552 10.0131 16.7372 11.9025 15.6791 13.1484C15.336 13.509 15.1616 13.5 14.976 13.5C14.8764 13.5 14.625 13.3796 14.625 13.0494V10.1329C14.625 9.7425 14.5277 9.5625 14.2132 9.5625H11.5982C11.3692 9.5625 11.25 9.7425 11.25 9.92306C11.25 10.2983 11.7551 10.3882 11.8125 11.4396V13.4775C11.8125 13.9725 11.7264 14.0625 11.5408 14.0625C11.0402 14.0625 10.0547 12.375 9.39487 10.1633C9.252 9.72788 9.10912 9.5625 8.73731 9.5625H7.25063C6.82144 9.5625 6.75 9.77288 6.75 9.99788C6.75 10.4034 7.0875 12.5961 8.92969 15.1172C10.2656 16.9453 12.0257 18 13.5838 18C14.5277 18 14.6244 17.7598 14.6244 17.3846V15.7129C14.625 15.2623 14.7279 15.1875 15.0283 15.1875C15.2426 15.1875 15.6797 15.3281 16.5234 16.3125C17.4966 17.4476 17.6732 18 18.2312 18H19.7038C20.0458 18 20.2421 17.8566 20.25 17.5781C20.2517 17.5072 20.2416 17.4279 20.2185 17.3396C20.1094 17.0156 19.6088 16.2236 18.9844 15.4688C18.6384 15.0508 18.297 14.6368 18.1401 14.4118C18.0349 14.265 17.9949 14.1615 18 14.0625C18.0051 13.9584 18.0591 13.8594 18.1401 13.7211C18.1254 13.7211 20.0289 11.0486 20.2146 10.1481Z" fill="black"/>
</svg>
