<svg width="79" height="75" viewBox="0 0 79 75" fill="none" xmlns="http://www.w3.org/2000/svg">
<path d="M75.5562 0.5H21.7773C19.9213 0.5 18.4167 2.01823 18.4167 3.89106V19L49.5834 28.25L78.9168 19V3.89106C78.9168 2.01823 77.4122 0.5 75.5562 0.5Z" fill="#41A5EE"/>
<path d="M78.9168 19H18.4167V37.5L49.5834 43.05L78.9168 37.5V19Z" fill="#2B7CD3"/>
<path d="M18.4167 37.5V56L47.7501 59.7L78.9168 56V37.5H18.4167Z" fill="#185ABD"/>
<path d="M21.7773 74.5H75.5563C77.4122 74.5 78.9168 72.9818 78.9168 71.1089V56H18.4167V71.1089C18.4167 72.9818 19.9213 74.5 21.7773 74.5Z" fill="#103F91"/>
<path opacity="0.1" d="M40.7229 15.3H18.4167V61.55H40.7229C42.5764 61.5439 44.0774 60.0292 44.0834 58.1589V18.691C44.0774 16.8208 42.5764 15.3061 40.7229 15.3Z" fill="black"/>
<path opacity="0.2" d="M38.8896 17.15H18.4167V63.4H38.8896C40.743 63.3939 42.244 61.8792 42.2501 60.0089V20.5411C42.244 18.6708 40.743 17.1561 38.8896 17.15Z" fill="black"/>
<path opacity="0.2" d="M38.8896 17.15H18.4167V59.7H38.8896C40.743 59.6939 42.244 58.1792 42.2501 56.3089V20.5411C42.244 18.6708 40.743 17.1561 38.8896 17.15Z" fill="black"/>
<path opacity="0.2" d="M37.0562 17.15H18.4167V59.7H37.0562C38.9097 59.6939 40.4107 58.1792 40.4167 56.3089V20.5411C40.4107 18.6708 38.9097 17.1561 37.0562 17.15Z" fill="black"/>
<path d="M3.44376 17.15H37.0561C38.912 17.15 40.4166 18.6682 40.4166 20.5411V54.459C40.4166 56.3318 38.912 57.85 37.0561 57.85H3.44376C1.5878 57.85 0.083252 56.3318 0.083252 54.459V20.5411C0.083252 18.6682 1.5878 17.15 3.44376 17.15Z" fill="url(#paint0_linear_436_2)"/>
<path d="M13.8736 43.1573C13.9396 43.6809 13.9836 44.136 14.0038 44.5263H14.0808C14.1101 44.1563 14.1712 43.7105 14.2641 43.1888C14.357 42.6671 14.4407 42.2262 14.5153 41.8661L18.05 26.4777H22.6205L26.2871 41.6348C26.5002 42.5772 26.6527 43.5326 26.7436 44.4949H26.8042C26.8725 43.5626 26.9999 42.6357 27.1855 41.7199L30.1096 26.4703H34.2695L29.1325 48.5223H24.2723L20.789 33.9184C20.6882 33.4985 20.5727 32.949 20.4462 32.2738C20.3196 31.5985 20.2408 31.1046 20.2096 30.7938H20.1491C20.1088 31.1526 20.03 31.6855 19.9126 32.3922C19.7953 33.0989 19.7012 33.6218 19.6303 33.961L16.3559 48.5186H11.4132L6.24878 26.4777H10.4838L13.6683 41.8974C13.7398 42.2138 13.8076 42.6356 13.8736 43.1573Z" fill="white"/>
<defs>
<linearGradient id="paint0_linear_436_2" x1="7.08998" y1="14.5003" x2="33.7687" y2="60.2906" gradientUnits="userSpaceOnUse">
<stop stop-color="#2368C4"/>
<stop offset="0.5" stop-color="#1A5DBE"/>
<stop offset="1" stop-color="#1146AC"/>
</linearGradient>
</defs>
</svg>
