<svg width="22" height="25" viewBox="0 0 22 25" fill="none" xmlns="http://www.w3.org/2000/svg">
<path d="M19.7999 17.6562C19.6166 18.75 18.8374 19.5833 17.8749 19.7396C16.3624 20 13.8416 20.3125 10.9999 20.3125C8.20408 20.3125 5.68325 20 4.12492 19.7396C3.16242 19.5833 2.38325 18.75 2.19992 17.6562C2.01659 16.4583 1.83325 14.6875 1.83325 12.5C1.83325 10.3125 2.01659 8.54167 2.19992 7.34375C2.38325 6.25 3.16242 5.41667 4.12492 5.26042C5.63742 5 8.15825 4.6875 10.9999 4.6875C13.8416 4.6875 16.3166 5 17.8749 5.26042C18.8374 5.41667 19.6166 6.25 19.7999 7.34375C19.9833 8.54167 20.2124 10.3125 20.2124 12.5C20.1666 14.6875 19.9833 16.4583 19.7999 17.6562Z" fill="white"/>
<path d="M9.16675 16.1457V8.854L14.6667 12.4998L9.16675 16.1457Z" fill="black"/>
</svg>
