<svg width="185" height="184" viewBox="0 0 185 184" fill="none" xmlns="http://www.w3.org/2000/svg">
<circle cx="92.3817" cy="92.3324" r="91.6732" fill="url(#paint0_linear_348_188)"/>
<path d="M79.9351 49.636C81.4517 48.1442 82.604 47.4008 84.7385 46.7953C93.7509 44.2386 95.2452 58.5874 88.4349 62.4511C79.6622 67.4278 73.1627 56.2816 79.3392 51.1703" stroke="white" stroke-width="6" stroke-linecap="round" stroke-linejoin="round"/>
<path d="M100.08 52.8629C100.962 50.7992 104.148 49.2471 106.457 49.9294C117.194 53.1022 112.482 65.5509 103.194 64.5978C98.6766 64.134 97.8542 57.3973 100.228 55.2634" stroke="white" stroke-width="6" stroke-linecap="round" stroke-linejoin="round"/>
<path d="M77.9075 73.4009C77.1115 74.9999 80.8023 98.688 82.1456 100.374C82.4921 100.809 95.4834 100.717 96.8467 100.374" stroke="white" stroke-width="6" stroke-linecap="round" stroke-linejoin="round"/>
<path d="M77.424 74.7703C77.6797 75.3519 72.1101 91.9601 72.4534 92.0282C73.8955 92.3155 83.152 82.9108 84.9401 82.0202" stroke="white" stroke-width="6" stroke-linecap="round" stroke-linejoin="round"/>
<path d="M107.114 68.2891C108.897 72.6463 104.807 80.8177 104.525 82.8791C104.433 83.5518 101.762 84.0784 100.666 83.9876C99.2916 83.8733 96.4382 83.8206 95.4071 82.8791" stroke="white" stroke-width="6" stroke-linecap="round" stroke-linejoin="round"/>
<path d="M104.586 67.3286C102.98 70.6708 95.7191 77.5513 91.7864 75.6272" stroke="white" stroke-width="6" stroke-linecap="round" stroke-linejoin="round"/>
<path d="M96.3257 84.8909C96.3257 91.7729 96.3257 94.439 96.3257 99.7741" stroke="white" stroke-width="6" stroke-linecap="round" stroke-linejoin="round"/>
<path d="M103.991 83.7002C101.089 85.1861 101.184 89.7666 97.1443 90.8441" stroke="white" stroke-width="6" stroke-linecap="round" stroke-linejoin="round"/>
<path d="M96.2777 100.667C96.2777 103.169 96.2777 105.671 96.2777 108.174C96.2777 115.249 96.8016 122.276 96.5474 129.353C96.4748 131.382 96.2349 133.274 95.8735 135.251C95.7586 135.881 94.9656 139.471 95.6044 138.2H98.6326" stroke="white" stroke-width="6" stroke-linecap="round" stroke-linejoin="round"/>
<path d="M82.5587 100.965C83.3648 110.358 85.1913 119.687 85.5196 129.126C85.6309 132.326 85.1159 135.387 85.1159 138.468L82.5587 138.47" stroke="white" stroke-width="6" stroke-linecap="round" stroke-linejoin="round"/>
<defs>
<linearGradient id="paint0_linear_348_188" x1="92.3817" y1="0.65918" x2="92.3817" y2="184.006" gradientUnits="userSpaceOnUse">
<stop stop-color="#FF8282"/>
<stop offset="1" stop-color="#EF4343"/>
</linearGradient>
</defs>
</svg>
