<svg width="184" height="185" viewBox="0 0 184 185" fill="none" xmlns="http://www.w3.org/2000/svg">
<circle cx="91.6998" cy="92.6112" r="91.6732" fill="url(#paint0_linear_348_169)"/>
<path d="M75.6391 75.1557C74.765 75.1557 73.9266 74.8028 73.3086 74.1746C72.6905 73.5465 72.3432 72.6945 72.3432 71.8061C72.2993 66.4282 74.3571 61.2524 78.0647 57.4152C81.7724 53.5779 86.8269 51.3929 92.1183 51.3398C92.9924 51.3398 93.8307 51.6928 94.4488 52.3209C95.0669 52.9491 95.4142 53.8011 95.4142 54.6895C95.4142 55.5779 95.0669 56.4298 94.4488 57.058C93.8307 57.6862 92.9924 58.0391 92.1183 58.0391C88.5751 58.0921 85.1972 59.5712 82.7257 62.1521C80.2542 64.7331 78.8909 68.2049 78.9349 71.8061C78.9349 72.6945 78.5877 73.5465 77.9696 74.1746C77.3515 74.8028 76.5132 75.1557 75.6391 75.1557Z" fill="white"/>
<path d="M92.017 120.555C91.1432 120.555 90.3051 120.207 89.6871 119.589C89.0692 118.971 88.7221 118.133 88.7221 117.259V104.273C88.6321 100.08 89.5558 95.9282 91.4145 92.1696C93.2732 88.4109 96.012 85.1569 99.3978 82.6843C101.193 81.4194 102.657 79.7407 103.666 77.7901C104.676 75.8395 105.201 73.6745 105.197 71.4781C105.241 67.9346 103.878 64.5184 101.407 61.9789C98.9364 59.4393 95.5594 57.9838 92.017 57.9317C91.1432 57.9317 90.3051 57.5845 89.6871 56.9664C89.0692 56.3483 88.7221 55.5099 88.7221 54.6358C88.7221 53.7617 89.0692 52.9233 89.6871 52.3052C90.3051 51.6871 91.1432 51.3398 92.017 51.3398C97.3071 51.3921 102.36 53.5421 106.067 57.3178C109.774 61.0936 111.831 66.1864 111.787 71.4781C111.773 74.7159 110.982 77.9031 109.48 80.7711C107.977 83.6391 105.808 86.1039 103.154 87.9578C100.624 89.8393 98.5892 92.3069 97.2233 95.1487C95.8573 97.9905 95.2015 101.121 95.312 104.273V117.259C95.312 118.133 94.9649 118.971 94.347 119.589C93.729 120.207 92.8909 120.555 92.017 120.555Z" fill="white"/>
<path d="M92.0652 133.951C91.1769 133.951 90.3251 133.598 89.697 132.97C89.0689 132.342 88.7161 131.49 88.7161 130.602C88.7161 129.714 89.0689 128.862 89.697 128.234C90.3251 127.606 91.1769 127.253 92.0652 127.253C92.9534 127.253 93.8053 127.606 94.4334 128.234C95.0614 128.862 95.4143 129.714 95.4143 130.602C95.4143 131.49 95.0614 132.342 94.4334 132.97C93.8053 133.598 92.9534 133.951 92.0652 133.951Z" fill="white"/>
<defs>
<linearGradient id="paint0_linear_348_169" x1="91.6998" y1="0.937988" x2="91.6998" y2="184.284" gradientUnits="userSpaceOnUse">
<stop stop-color="#FFC165"/>
<stop offset="1" stop-color="#FF8762"/>
</linearGradient>
</defs>
</svg>
