<svg width="184" height="185" viewBox="0 0 184 185" fill="none" xmlns="http://www.w3.org/2000/svg">
<circle cx="92.1732" cy="92.5931" r="91.6732" fill="url(#paint0_linear_348_152)"/>
<g clip-path="url(#clip0_348_152)">
<path d="M126.422 92.0219V65.4293C126.422 65.2764 126.403 65.1043 126.346 64.9514L123.229 55.9852C122.885 55.0293 121.987 54.3793 120.974 54.3793C120.954 54.3793 120.954 54.3793 120.935 54.3793C119.903 54.3984 119.004 55.0676 118.699 56.0426L116.806 61.9881C110.86 53.3087 100.996 48.0323 90.3471 48.0323C88.2251 48.0323 86.0839 48.2426 84.0001 48.6632C82.7383 45.8338 80.2722 44.0176 77.5383 44.0176C73.8869 44.0176 70.8472 47.2293 70.2928 51.4352C67.5016 50.4602 64.5957 50.9382 62.7031 52.8308C60.0649 55.469 60.256 60.0381 62.9898 63.422C59.931 68.4308 58.3251 74.1661 58.3251 80.0734V84.891C55.8972 86.344 54.2722 89.0013 54.2722 92.041C54.2722 96.5719 57.9046 100.262 62.4163 100.376C63.2766 103.244 64.5575 105.978 66.259 108.463H66.0104C64.5001 108.463 63.0663 109.113 62.0722 110.241C61.0781 111.369 60.6193 112.879 60.7913 114.37L62.4546 127.619C58.8222 127.963 55.9928 131.041 55.9928 134.75C55.9928 138.707 59.2046 141.919 63.1619 141.919H119.272C123.229 141.919 126.441 138.707 126.441 134.75C126.441 130.792 123.21 127.562 119.253 127.562H118.259L118.679 124.235C118.775 123.451 118.221 122.725 117.437 122.629C116.653 122.534 115.927 123.088 115.831 123.872L114.206 136.929C114.053 138.114 113.04 139.032 111.835 139.032H68.8781C67.6737 139.032 66.6604 138.134 66.5075 136.929L63.6398 113.988C63.5443 113.3 63.7546 112.631 64.2134 112.115C64.6722 111.598 65.3031 111.312 66.0104 111.312H114.703C115.391 111.312 116.041 111.598 116.5 112.115C116.959 112.631 117.169 113.3 117.074 113.988L116.557 118.137C116.462 118.92 117.016 119.647 117.8 119.742C118.584 119.838 119.31 119.284 119.406 118.5L119.922 114.351C120.113 112.86 119.635 111.35 118.641 110.222C117.647 109.094 116.213 108.444 114.703 108.444H114.435C116.137 105.959 117.418 103.225 118.278 100.357C122.79 100.262 126.422 96.5528 126.422 92.0219ZM117.035 137.292L117.896 130.429H119.253C121.624 130.429 123.554 132.36 123.554 134.731C123.554 137.101 121.624 139.032 119.253 139.032H116.5C116.787 138.497 116.959 137.923 117.035 137.292ZM63.1428 139.032C60.7722 139.032 58.8413 137.101 58.8413 134.731C58.8413 132.475 60.581 130.62 62.7987 130.448L63.659 137.292C63.7354 137.923 63.9266 138.497 64.1943 139.032H63.1428ZM119.004 97.4131C119.329 95.6542 119.502 93.8381 119.502 92.0219C119.502 90.2057 119.329 88.4087 119.004 86.6307C121.585 87.0704 123.554 89.3072 123.554 92.0219C123.554 94.7366 121.585 96.9925 119.004 97.4131ZM122.025 61.2425L123.344 65.0469C122.713 65.5631 121.949 65.8499 121.107 65.8499H121.088C120.247 65.8499 119.463 65.5631 118.832 65.0278L120.037 61.2425C120.687 61.4337 121.375 61.4146 122.025 61.2425ZM121.107 68.7175H121.127C121.968 68.7175 122.79 68.5455 123.554 68.2396V85.7513C122.216 84.5851 120.515 83.8396 118.641 83.7249V68.2396C119.425 68.5455 120.247 68.7175 121.107 68.7175ZM57.1399 92.0219C57.1399 89.3263 59.109 87.0704 61.6898 86.6307C61.3648 88.4087 61.1928 90.2057 61.1928 92.0219C61.1928 93.8381 61.3648 95.6351 61.6898 97.4131C59.109 96.9925 57.1399 94.7366 57.1399 92.0219ZM69.8148 108.444C66.106 103.798 64.0604 97.9866 64.0604 92.0219C64.0604 90.1866 64.2516 88.3704 64.6148 86.5925C68.4575 86.4204 72.281 85.3881 76.0089 83.5146C76.7163 83.1513 77.0031 82.291 76.6398 81.5837C76.2766 80.8763 75.4163 80.5896 74.7089 80.9528C71.0575 82.7881 67.3104 83.7249 63.5634 83.744C63.2384 83.7057 62.9134 83.6866 62.6075 83.6866C62.1296 83.6866 61.6516 83.7249 61.1928 83.8013V80.0352C61.1928 74.319 62.856 68.794 65.9722 64.0337C66.3545 63.4602 66.2781 62.7146 65.781 62.2175C65.7619 62.1984 65.7619 62.1984 65.7428 62.1793C63.4487 59.8852 62.9898 56.597 64.7295 54.8573C66.1443 53.4426 68.6869 53.4617 70.8854 54.9146C71.3442 55.2205 71.9369 55.2396 72.4148 54.9529C72.8928 54.6661 73.1604 54.1308 73.1031 53.5955C73.0839 53.3279 73.0648 53.0793 73.0648 52.8499C73.0648 49.5808 75.0722 46.9043 77.5383 46.9043C79.3736 46.9043 81.056 48.4529 81.7251 50.747C81.9354 51.4926 82.7001 51.9323 83.4457 51.7411C85.7016 51.1867 88.0339 50.919 90.3663 50.919C100.919 50.919 110.631 56.6161 115.793 65.8117V83.7249C108.49 83.266 102.487 79.3087 98.6633 75.9822C94.1707 72.0631 91.5898 68.0675 91.5516 68.0293C91.2839 67.6278 90.8251 67.3793 90.3471 67.3793C89.8692 67.3793 89.4104 67.6278 89.1427 68.0293C89.1045 68.0866 85.4913 73.6308 79.3928 78.1043C78.7619 78.5631 78.6089 79.4616 79.0869 80.1116C79.5457 80.7425 80.4442 80.8954 81.0942 80.4175C85.5677 77.1484 88.7604 73.4013 90.3663 71.2793C91.6089 72.9043 93.7692 75.4852 96.7324 78.0852C102.774 83.3807 109.446 86.3057 116.099 86.6116C116.481 88.3896 116.653 90.2057 116.653 92.041C116.653 98.0057 114.607 103.817 110.899 108.463L69.8148 108.444Z" fill="white"/>
<path d="M83.1781 125.172C83.1781 129.129 86.3899 132.341 90.3472 132.341C94.3045 132.341 97.5163 129.129 97.5163 125.172C97.5163 121.214 94.3045 118.003 90.3472 118.003C86.3899 118.003 83.1781 121.214 83.1781 125.172ZM94.6487 125.172C94.6487 127.542 92.7178 129.473 90.3472 129.473C87.9766 129.473 86.0457 127.542 86.0457 125.172C86.0457 122.801 87.9766 120.87 90.3472 120.87C92.7178 120.87 94.6487 122.801 94.6487 125.172Z" fill="white"/>
<path d="M78.4177 94.6984C77.6339 94.6984 76.9839 94.0484 76.9839 93.2646V90.9704C76.9839 90.1866 77.6339 89.5366 78.4177 89.5366C79.2015 89.5366 79.8515 90.1866 79.8515 90.9704V93.2646C79.8515 94.0675 79.2015 94.6984 78.4177 94.6984Z" fill="white"/>
<path d="M102.296 94.6984C101.512 94.6984 100.862 94.0484 100.862 93.2646V90.9704C100.862 90.1866 101.512 89.5366 102.296 89.5366C103.079 89.5366 103.729 90.1866 103.729 90.9704V93.2646C103.729 94.0675 103.079 94.6984 102.296 94.6984Z" fill="white"/>
<path d="M90.3471 96.075C88.7221 96.075 87.1927 95.3676 86.1221 94.1441C85.6059 93.5514 85.6633 92.6338 86.2559 92.1176C86.8486 91.6014 87.7662 91.6588 88.2824 92.2514C88.7986 92.8441 89.5633 93.1882 90.3471 93.1882C91.1309 93.1882 91.8956 92.8441 92.4118 92.2514C92.928 91.6588 93.8456 91.6014 94.4383 92.1176C95.0309 92.6338 95.0883 93.5514 94.5721 94.1441C93.5015 95.3676 91.9721 96.075 90.3471 96.075Z" fill="white"/>
</g>
<defs>
<linearGradient id="paint0_linear_348_152" x1="92.1732" y1="0.919922" x2="92.1732" y2="184.266" gradientUnits="userSpaceOnUse">
<stop stop-color="#3D9FEA"/>
<stop offset="1" stop-color="#407DD1"/>
</linearGradient>
<clipPath id="clip0_348_152">
<rect width="97.8822" height="97.8822" fill="white" transform="translate(41.406 44.0176)"/>
</clipPath>
</defs>
</svg>
