<svg width="184" height="184" viewBox="0 0 184 184" fill="none" xmlns="http://www.w3.org/2000/svg">
<circle cx="91.6732" cy="91.849" r="91.6732" fill="url(#paint0_linear_348_152)"/>
<g clip-path="url(#clip0_348_152)">
<path d="M125.922 91.2778V64.6852C125.922 64.5322 125.903 64.3602 125.846 64.2072L122.729 55.2411C122.385 54.2852 121.487 53.6352 120.474 53.6352C120.454 53.6352 120.454 53.6352 120.435 53.6352C119.403 53.6543 118.504 54.3234 118.199 55.2984L116.306 61.244C110.36 52.5646 100.496 47.2881 89.8471 47.2881C87.7251 47.2881 85.5839 47.4984 83.5001 47.919C82.2383 45.0896 79.7722 43.2734 77.0383 43.2734C73.3869 43.2734 70.3472 46.4852 69.7928 50.6911C67.0016 49.7161 64.0957 50.194 62.2031 52.0867C59.5649 54.7249 59.756 59.294 62.4898 62.6778C59.431 67.6866 57.8251 73.4219 57.8251 79.3293V84.1469C55.3972 85.5998 53.7722 88.2572 53.7722 91.2969C53.7722 95.8277 57.4046 99.5174 61.9163 99.6321C62.7766 102.5 64.0575 105.234 65.759 107.719H65.5104C64.0001 107.719 62.5663 108.369 61.5722 109.497C60.5781 110.625 60.1193 112.135 60.2913 113.626L61.9546 126.875C58.3222 127.219 55.4928 130.297 55.4928 134.006C55.4928 137.963 58.7046 141.175 62.6619 141.175H118.772C122.729 141.175 125.941 137.963 125.941 134.006C125.941 130.048 122.71 126.817 118.753 126.817H117.759L118.179 123.491C118.275 122.707 117.721 121.981 116.937 121.885C116.153 121.789 115.427 122.344 115.331 123.128L113.706 136.185C113.553 137.37 112.54 138.288 111.335 138.288H68.3781C67.1737 138.288 66.1604 137.389 66.0075 136.185L63.1398 113.244C63.0443 112.556 63.2546 111.887 63.7134 111.37C64.1722 110.854 64.8031 110.567 65.5104 110.567H114.203C114.891 110.567 115.541 110.854 116 111.37C116.459 111.887 116.669 112.556 116.574 113.244L116.057 117.392C115.962 118.176 116.516 118.903 117.3 118.998C118.084 119.094 118.81 118.539 118.906 117.756L119.422 113.607C119.613 112.116 119.135 110.606 118.141 109.478C117.147 108.35 115.713 107.7 114.203 107.7H113.935C115.637 105.214 116.918 102.481 117.778 99.613C122.29 99.5174 125.922 95.8086 125.922 91.2778ZM116.535 136.548L117.396 129.685H118.753C121.124 129.685 123.054 131.616 123.054 133.986C123.054 136.357 121.124 138.288 118.753 138.288H116C116.287 137.753 116.459 137.179 116.535 136.548ZM62.6428 138.288C60.2722 138.288 58.3413 136.357 58.3413 133.986C58.3413 131.731 60.081 129.876 62.2987 129.704L63.159 136.548C63.2354 137.179 63.4266 137.753 63.6943 138.288H62.6428ZM118.504 96.6689C118.829 94.9101 119.002 93.0939 119.002 91.2778C119.002 89.4616 118.829 87.6645 118.504 85.8866C121.085 86.3263 123.054 88.5631 123.054 91.2778C123.054 93.9925 121.085 96.2483 118.504 96.6689ZM121.525 60.4984L122.844 64.3028C122.213 64.819 121.449 65.1057 120.607 65.1057H120.588C119.747 65.1057 118.963 64.819 118.332 64.2837L119.537 60.4984C120.187 60.6896 120.875 60.6705 121.525 60.4984ZM120.607 67.9734H120.627C121.468 67.9734 122.29 67.8013 123.054 67.4954V85.0072C121.716 83.841 120.015 83.0954 118.141 82.9807V67.4954C118.925 67.8013 119.747 67.9734 120.607 67.9734ZM56.6399 91.2778C56.6399 88.5822 58.609 86.3263 61.1898 85.8866C60.8648 87.6645 60.6928 89.4616 60.6928 91.2778C60.6928 93.0939 60.8648 94.891 61.1898 96.6689C58.609 96.2483 56.6399 93.9925 56.6399 91.2778ZM69.3148 107.7C65.606 103.054 63.5604 97.2425 63.5604 91.2778C63.5604 89.4425 63.7516 87.6263 64.1148 85.8484C67.9575 85.6763 71.781 84.6439 75.5089 82.7704C76.2163 82.4072 76.5031 81.5469 76.1398 80.8395C75.7766 80.1322 74.9163 79.8454 74.2089 80.2087C70.5575 82.0439 66.8104 82.9807 63.0634 82.9998C62.7384 82.9616 62.4134 82.9425 62.1075 82.9425C61.6296 82.9425 61.1516 82.9807 60.6928 83.0572V79.291C60.6928 73.5748 62.356 68.0499 65.4722 63.2896C65.8545 62.716 65.7781 61.9705 65.281 61.4734C65.2619 61.4543 65.2619 61.4543 65.2428 61.4352C62.9487 59.1411 62.4898 55.8528 64.2295 54.1131C65.6443 52.6984 68.1869 52.7175 70.3854 54.1705C70.8442 54.4764 71.4369 54.4955 71.9148 54.2087C72.3928 53.9219 72.6604 53.3867 72.6031 52.8514C72.5839 52.5837 72.5648 52.3352 72.5648 52.1058C72.5648 48.8367 74.5722 46.1602 77.0383 46.1602C78.8736 46.1602 80.556 47.7087 81.2251 50.0028C81.4354 50.7484 82.2001 51.1881 82.9457 50.997C85.2016 50.4425 87.5339 50.1749 89.8663 50.1749C100.419 50.1749 110.131 55.8719 115.293 65.0675V82.9807C107.99 82.5219 101.987 78.5645 98.1633 75.2381C93.6707 71.319 91.0898 67.3234 91.0516 67.2852C90.7839 66.8837 90.3251 66.6352 89.8471 66.6352C89.3692 66.6352 88.9104 66.8837 88.6427 67.2852C88.6045 67.3425 84.9913 72.8866 78.8928 77.3601C78.2619 77.819 78.1089 78.7175 78.5869 79.3675C79.0457 79.9984 79.9442 80.1513 80.5942 79.6734C85.0677 76.4043 88.2604 72.6572 89.8663 70.5352C91.1089 72.1601 93.2692 74.741 96.2324 77.341C102.274 82.6366 108.946 85.5616 115.599 85.8675C115.981 87.6454 116.153 89.4616 116.153 91.2969C116.153 97.2616 114.107 103.073 110.399 107.719L69.3148 107.7Z" fill="white"/>
<path d="M82.6781 124.428C82.6781 128.385 85.8899 131.597 89.8472 131.597C93.8046 131.597 97.0163 128.385 97.0163 124.428C97.0163 120.47 93.8046 117.259 89.8472 117.259C85.8899 117.259 82.6781 120.47 82.6781 124.428ZM94.1487 124.428C94.1487 126.798 92.2178 128.729 89.8472 128.729C87.4766 128.729 85.5457 126.798 85.5457 124.428C85.5457 122.057 87.4766 120.126 89.8472 120.126C92.2178 120.126 94.1487 122.057 94.1487 124.428Z" fill="white"/>
<path d="M77.9177 93.9542C77.1339 93.9542 76.4839 93.3042 76.4839 92.5204V90.2263C76.4839 89.4425 77.1339 88.7925 77.9177 88.7925C78.7015 88.7925 79.3515 89.4425 79.3515 90.2263V92.5204C79.3515 93.3234 78.7015 93.9542 77.9177 93.9542Z" fill="white"/>
<path d="M101.796 93.9542C101.012 93.9542 100.362 93.3042 100.362 92.5204V90.2263C100.362 89.4425 101.012 88.7925 101.796 88.7925C102.579 88.7925 103.229 89.4425 103.229 90.2263V92.5204C103.229 93.3234 102.579 93.9542 101.796 93.9542Z" fill="white"/>
<path d="M89.8471 95.3308C88.2221 95.3308 86.6927 94.6235 85.6221 93.3999C85.1059 92.8073 85.1633 91.8896 85.7559 91.3735C86.3486 90.8573 87.2662 90.9146 87.7824 91.5073C88.2986 92.0999 89.0633 92.4441 89.8471 92.4441C90.6309 92.4441 91.3956 92.0999 91.9118 91.5073C92.428 90.9146 93.3456 90.8573 93.9383 91.3735C94.5309 91.8896 94.5883 92.8073 94.0721 93.3999C93.0015 94.6235 91.4721 95.3308 89.8471 95.3308Z" fill="white"/>
</g>
<defs>
<linearGradient id="paint0_linear_348_152" x1="91.6732" y1="0.175781" x2="91.6732" y2="183.522" gradientUnits="userSpaceOnUse">
<stop stop-color="#3D9FEA"/>
<stop offset="1" stop-color="#407DD1"/>
</linearGradient>
<clipPath id="clip0_348_152">
<rect width="97.8822" height="97.8822" fill="white" transform="translate(40.906 43.2734)"/>
</clipPath>
</defs>
</svg>
