<svg width="184" height="185" viewBox="0 0 184 185" fill="none" xmlns="http://www.w3.org/2000/svg">
<circle cx="91.8817" cy="92.5882" r="91.6732" fill="url(#paint0_linear_348_188)"/>
<path d="M79.4351 49.8919C80.9517 48.4001 82.104 47.6567 84.2385 47.0511C93.2509 44.4944 94.7452 58.8433 87.9349 62.707C79.1622 67.6837 72.6627 56.5375 78.8392 51.4262" stroke="white" stroke-width="6" stroke-linecap="round" stroke-linejoin="round"/>
<path d="M99.5795 53.1188C100.462 51.0551 103.648 49.5029 105.957 50.1852C116.694 53.358 111.982 65.8067 102.694 64.8536C98.1766 64.3899 97.3542 57.6532 99.7278 55.5192" stroke="white" stroke-width="6" stroke-linecap="round" stroke-linejoin="round"/>
<path d="M77.4075 73.6567C76.6115 75.2558 80.3023 98.9439 81.6456 100.63C81.9921 101.065 94.9834 100.972 96.3467 100.63" stroke="white" stroke-width="6" stroke-linecap="round" stroke-linejoin="round"/>
<path d="M76.924 75.0261C77.1797 75.6078 71.6101 92.2159 71.9534 92.2841C73.3955 92.5713 82.652 83.1666 84.4401 82.276" stroke="white" stroke-width="6" stroke-linecap="round" stroke-linejoin="round"/>
<path d="M106.614 68.5449C108.397 72.9021 104.307 81.0736 104.025 83.1349C103.933 83.8076 101.262 84.3342 100.166 84.2434C98.7916 84.1291 95.9382 84.0764 94.9071 83.1349" stroke="white" stroke-width="6" stroke-linecap="round" stroke-linejoin="round"/>
<path d="M104.086 67.5845C102.48 70.9266 95.2191 77.8071 91.2864 75.883" stroke="white" stroke-width="6" stroke-linecap="round" stroke-linejoin="round"/>
<path d="M95.8257 85.1467C95.8257 92.0287 95.8257 94.6949 95.8257 100.03" stroke="white" stroke-width="6" stroke-linecap="round" stroke-linejoin="round"/>
<path d="M103.491 83.9561C100.589 85.442 100.684 90.0224 96.6443 91.1" stroke="white" stroke-width="6" stroke-linecap="round" stroke-linejoin="round"/>
<path d="M95.7777 100.923C95.7777 103.425 95.7777 105.927 95.7777 108.43C95.7777 115.505 96.3016 122.532 96.0474 129.609C95.9748 131.638 95.7349 133.53 95.3735 135.507C95.2586 136.137 94.4656 139.727 95.1044 138.456H98.1326" stroke="white" stroke-width="6" stroke-linecap="round" stroke-linejoin="round"/>
<path d="M82.0587 101.22C82.8648 110.614 84.6913 119.943 85.0196 129.382C85.1309 132.582 84.6159 135.643 84.6159 138.724L82.0587 138.726" stroke="white" stroke-width="6" stroke-linecap="round" stroke-linejoin="round"/>
<defs>
<linearGradient id="paint0_linear_348_188" x1="91.8817" y1="0.915039" x2="91.8817" y2="184.261" gradientUnits="userSpaceOnUse">
<stop stop-color="#FF8282"/>
<stop offset="1" stop-color="#EF4343"/>
</linearGradient>
</defs>
</svg>
