<svg width="184" height="184" viewBox="0 0 184 184" fill="none" xmlns="http://www.w3.org/2000/svg">
<circle cx="92.1998" cy="91.8671" r="91.6732" fill="url(#paint0_linear_348_169)"/>
<path d="M76.1391 74.4116C75.265 74.4116 74.4266 74.0587 73.8086 73.4305C73.1905 72.8023 72.8432 71.9503 72.8432 71.062C72.7993 65.6841 74.8571 60.5083 78.5647 56.6711C82.2724 52.8338 87.3269 50.6488 92.6183 50.5957C93.4924 50.5957 94.3307 50.9486 94.9488 51.5768C95.5669 52.205 95.9142 53.057 95.9142 53.9453C95.9142 54.8337 95.5669 55.6857 94.9488 56.3139C94.3307 56.9421 93.4924 57.295 92.6183 57.295C89.0751 57.3479 85.6972 58.8271 83.2257 61.408C80.7542 63.9889 79.3909 67.4608 79.4349 71.062C79.4349 71.9503 79.0877 72.8023 78.4696 73.4305C77.8515 74.0587 77.0132 74.4116 76.1391 74.4116Z" fill="white"/>
<path d="M92.517 119.811C91.6432 119.811 90.8051 119.463 90.1871 118.845C89.5692 118.227 89.2221 117.389 89.2221 116.515V103.529C89.1321 99.3362 90.0558 95.1841 91.9145 91.4254C93.7732 87.6668 96.512 84.4128 99.8978 81.9402C101.693 80.6752 103.157 78.9965 104.166 77.046C105.176 75.0954 105.701 72.9303 105.697 70.7339C105.741 67.1905 104.378 63.7743 101.907 61.2347C99.4364 58.6952 96.0594 57.2397 92.517 57.1876C91.6432 57.1876 90.8051 56.8403 90.1871 56.2222C89.5692 55.6041 89.2221 54.7658 89.2221 53.8917C89.2221 53.0175 89.5692 52.1792 90.1871 51.5611C90.8051 50.943 91.6432 50.5957 92.517 50.5957C97.8071 50.6479 102.86 52.7979 106.567 56.5737C110.274 60.3494 112.331 65.4423 112.287 70.7339C112.273 73.9718 111.482 77.159 109.98 80.0269C108.477 82.8949 106.308 85.3597 103.654 87.2137C101.124 89.0951 99.0892 91.5627 97.7233 94.4045C96.3573 97.2463 95.7015 100.377 95.812 103.529V116.515C95.812 117.389 95.4649 118.227 94.847 118.845C94.229 119.463 93.3909 119.811 92.517 119.811Z" fill="white"/>
<path d="M92.5652 133.207C91.6769 133.207 90.8251 132.854 90.197 132.226C89.5689 131.598 89.2161 130.746 89.2161 129.858C89.2161 128.97 89.5689 128.118 90.197 127.49C90.8251 126.862 91.6769 126.509 92.5652 126.509C93.4534 126.509 94.3053 126.862 94.9334 127.49C95.5614 128.118 95.9143 128.97 95.9143 129.858C95.9143 130.746 95.5614 131.598 94.9334 132.226C94.3053 132.854 93.4534 133.207 92.5652 133.207Z" fill="white"/>
<defs>
<linearGradient id="paint0_linear_348_169" x1="92.1998" y1="0.193848" x2="92.1998" y2="183.54" gradientUnits="userSpaceOnUse">
<stop stop-color="#FFC165"/>
<stop offset="1" stop-color="#FF8762"/>
</linearGradient>
</defs>
</svg>
