<svg width="100" height="100" viewBox="0 0 100 100" fill="none" xmlns="http://www.w3.org/2000/svg">
<path d="M14.8231 70.3281C18.0896 75.9889 22.6759 80.7762 28.1914 84.2825C33.7068 87.7888 39.988 89.91 46.5 90.4656L64.8899 58.6134L50 50.0181L35.1203 58.6094L30.1593 50.0156L26.5265 43.7247L16.7353 26.7653C12.305 33.0922 9.77181 40.5518 9.4331 48.2682C9.09439 55.9845 10.9642 63.6374 14.8231 70.3281Z" fill="#00AC47"/>
<path d="M50 9.39752C43.4643 9.39583 37.025 10.9738 31.2305 13.9972C25.4361 17.0205 20.4582 21.3995 16.7209 26.7613L35.1109 58.6135L50 50.0178V32.835H86.7688C83.5046 25.8352 78.3112 19.9119 71.7984 15.7604C65.2855 11.6089 57.7235 9.4016 50 9.39752Z" fill="#EA4435"/>
<path d="M85.174 70.3281C88.4427 64.6691 90.2954 58.3038 90.5742 51.7745C90.853 45.2452 89.5497 38.7452 86.7753 32.8281H49.9956V50.0191L64.8765 58.6103L59.9156 67.2041L56.2828 73.4963L46.4912 90.4553C54.1858 91.1282 61.9127 89.5919 68.7646 86.0267C75.6165 82.4616 81.3091 77.0156 85.174 70.3281Z" fill="#FFBA00"/>
<path d="M49.9985 67.21C59.4909 67.21 67.186 59.5149 67.186 50.0225C67.186 40.5301 59.4909 32.835 49.9985 32.835C40.5061 32.835 32.811 40.5301 32.811 50.0225C32.811 59.5149 40.5061 67.21 49.9985 67.21Z" fill="white"/>
<path d="M49.9985 63.3038C57.3336 63.3038 63.2798 57.3576 63.2798 50.0225C63.2798 42.6875 57.3336 36.7413 49.9985 36.7413C42.6635 36.7413 36.7173 42.6875 36.7173 50.0225C36.7173 57.3576 42.6635 63.3038 49.9985 63.3038Z" fill="#4285F4"/>
</svg>
