<svg width="79" height="75" viewBox="0 0 79 75" fill="none" xmlns="http://www.w3.org/2000/svg">
<path d="M75.5189 0.498535H21.7399C19.8839 0.498535 18.3794 2.01676 18.3794 3.8896V18.9985L49.5461 28.2485L78.8794 18.9985V3.8896C78.8794 2.01676 77.3749 0.498535 75.5189 0.498535Z" fill="#41A5EE"/>
<path d="M78.8794 18.9985H18.3794V37.4985L49.5461 43.0485L78.8794 37.4985V18.9985Z" fill="#2B7CD3"/>
<path d="M18.3794 37.4985V55.9985L47.7127 59.6985L78.8794 55.9985V37.4985H18.3794Z" fill="#185ABD"/>
<path d="M21.7399 74.4985H75.5189C77.3749 74.4985 78.8794 72.9803 78.8794 71.1075V55.9985H18.3794V71.1075C18.3794 72.9803 19.8839 74.4985 21.7399 74.4985Z" fill="#103F91"/>
<path opacity="0.1" d="M40.6856 15.2985H18.3794V61.5485H40.6856C42.539 61.5424 44.04 60.0278 44.0461 58.1575V18.6896C44.04 16.8193 42.539 15.3046 40.6856 15.2985Z" fill="black"/>
<path opacity="0.2" d="M38.8522 17.1485H18.3794V63.3985H38.8522C40.7057 63.3924 42.2067 61.8778 42.2127 60.0075V20.5396C42.2067 18.6693 40.7057 17.1546 38.8522 17.1485Z" fill="black"/>
<path opacity="0.2" d="M38.8522 17.1485H18.3794V59.6985H38.8522C40.7057 59.6924 42.2067 58.1778 42.2127 56.3075V20.5396C42.2067 18.6693 40.7057 17.1546 38.8522 17.1485Z" fill="black"/>
<path opacity="0.2" d="M37.0189 17.1485H18.3794V59.6985H37.0189C38.8723 59.6924 40.3734 58.1778 40.3794 56.3075V20.5396C40.3734 18.6693 38.8723 17.1546 37.0189 17.1485Z" fill="black"/>
<path d="M3.40641 17.1485H37.0187C38.8747 17.1485 40.3792 18.6668 40.3792 20.5396V54.4575C40.3792 56.3303 38.8747 57.8486 37.0187 57.8486H3.40641C1.55045 57.8486 0.0458984 56.3303 0.0458984 54.4575V20.5396C0.0458984 18.6668 1.55045 17.1485 3.40641 17.1485Z" fill="url(#paint0_linear_436_2)"/>
<path d="M13.8363 43.1559C13.9023 43.6794 13.9463 44.1345 13.9664 44.5249H14.0434C14.0728 44.1549 14.1339 43.709 14.2268 43.1873C14.3197 42.6656 14.4034 42.2247 14.4779 41.8646L18.0126 26.4763H22.5831L26.2498 41.6333C26.4628 42.5758 26.6153 43.5311 26.7063 44.4934H26.7668C26.8352 43.5612 26.9625 42.6343 27.1481 41.7184L30.0723 26.4689H34.2321L29.0951 48.5209H24.235L20.7516 33.917C20.6508 33.497 20.5353 32.9476 20.4088 32.2723C20.2823 31.597 20.2035 31.1031 20.1723 30.7923H20.1118C20.0715 31.1512 19.9926 31.684 19.8753 32.3907C19.7579 33.0974 19.6638 33.6203 19.5929 33.9595L16.3186 48.5171H11.3759L6.21143 26.4762H10.4464L13.6309 41.896C13.7024 42.2124 13.7703 42.6342 13.8363 43.1559Z" fill="white"/>
<defs>
<linearGradient id="paint0_linear_436_2" x1="7.05263" y1="14.4988" x2="33.7314" y2="60.2891" gradientUnits="userSpaceOnUse">
<stop stop-color="#2368C4"/>
<stop offset="0.5" stop-color="#1A5DBE"/>
<stop offset="1" stop-color="#1146AC"/>
</linearGradient>
</defs>
</svg>
