<svg width="83" height="101" viewBox="0 0 83 101" fill="none" xmlns="http://www.w3.org/2000/svg">
<g clip-path="url(#clip0_368_12)">
<path d="M41.0058 -0.000775396C37.5834 0.0151979 34.315 0.308385 31.4392 0.819528C22.9674 2.32289 21.4292 5.46956 21.4292 11.2725V18.9365H41.4491V21.4912H21.4292H13.9159C8.09761 21.4912 3.00291 25.0039 1.40935 31.6864C-0.428797 39.346 -0.510329 44.1258 1.40935 52.1237C2.83244 58.077 6.23096 62.3189 12.0493 62.3189H18.9326V53.1315C18.9326 46.4941 24.6499 40.6394 31.4392 40.6394H51.4357C57.0021 40.6394 61.4457 36.0358 61.4457 30.4208V11.2725C61.4457 5.82285 56.8686 1.72906 51.4357 0.819528C47.9966 0.244491 44.4282 -0.016749 41.0058 -0.000775396ZM30.1792 6.16322C32.2471 6.16322 33.9358 7.88719 33.9358 10.0069C33.9358 12.1192 32.2471 13.8272 30.1792 13.8272C28.1039 13.8272 26.4225 12.1192 26.4225 10.0069C26.4225 7.88719 28.1039 6.16322 30.1792 6.16322Z" fill="url(#paint0_linear_368_12)"/>
<path d="M63.9423 21.4912V30.4208C63.9423 37.3438 58.099 43.1706 51.4357 43.1706H31.4391C25.9618 43.1706 21.4292 47.8794 21.4292 53.3893V72.5375C21.4292 77.9872 26.1471 81.1927 31.4391 82.7562C37.7763 84.6278 43.8533 84.9661 51.4357 82.7562C56.4758 81.2904 61.4456 78.3405 61.4456 72.5375V64.8735H41.4491V62.3189H61.4456H71.4556C77.2739 62.3189 79.4421 58.2424 81.4655 52.1237C83.5557 45.8246 83.4667 39.767 81.4655 31.6864C80.0276 25.8684 77.2813 21.4912 71.4556 21.4912H63.9423ZM52.6957 69.9829C54.771 69.9829 56.4523 71.6909 56.4523 73.8031C56.4523 75.9229 54.771 77.6468 52.6957 77.6468C50.6278 77.6468 48.939 75.9229 48.939 73.8031C48.939 71.6909 50.6278 69.9829 52.6957 69.9829Z" fill="url(#paint1_linear_368_12)"/>
</g>
<defs>
<linearGradient id="paint0_linear_368_12" x1="-2.49406e-07" y1="-0.00146506" x2="46.3363" y2="39.3082" gradientUnits="userSpaceOnUse">
<stop stop-color="#5A9FD4"/>
<stop offset="1" stop-color="#306998"/>
</linearGradient>
<linearGradient id="paint1_linear_368_12" x1="52.2146" y1="73.1588" x2="35.555" y2="49.9174" gradientUnits="userSpaceOnUse">
<stop stop-color="#FFD43B"/>
<stop offset="1" stop-color="#FFE873"/>
</linearGradient>
<clipPath id="clip0_368_12">
<rect width="83" height="101" fill="white" transform="translate(0 -0.00146484)"/>
</clipPath>
</defs>
</svg>
