<svg width="89" height="89" viewBox="0 0 89 89" fill="none" xmlns="http://www.w3.org/2000/svg">
<g clip-path="url(#clip0_368_67)">
<path fill-rule="evenodd" clip-rule="evenodd" d="M19.1359 0.857788H19.1705C27.5088 3.05201 35.8761 5.17695 44.2202 7.37117C45.8359 7.7927 47.4632 8.1969 49.0789 8.62997C52.3277 9.44414 55.5534 10.3276 58.7964 11.1418C61.7336 11.9155 64.6766 12.672 67.6195 13.4342C71.6069 14.462 75.5886 15.5187 79.576 16.5292C81.3475 17.0027 83.1248 17.4588 84.9021 17.915C86.2582 18.2615 87.6085 18.6368 88.9646 18.9717C82.9286 42.2536 76.8754 65.5355 70.8395 88.8231C69.8816 88.5979 68.9352 88.3266 67.9773 88.0783C53.8107 84.4231 39.6557 80.7218 25.4892 77.0667C22.1423 76.1833 18.7896 75.3229 15.4427 74.4567C13.2153 73.8562 10.9706 73.3134 8.7432 72.7187C6.16379 72.0489 3.59015 71.379 1.01074 70.7092C4.25376 58.2021 7.50255 45.7008 10.7513 33.1937C13.5385 22.4132 16.3545 11.6384 19.1359 0.857788ZM39.9558 36.3292C38.7901 40.8331 37.6072 45.3313 36.4473 49.8352C40.9425 51.0016 45.432 52.1853 49.9272 53.346C51.0928 48.842 52.2758 44.3439 53.4357 39.8399C51.2198 39.2683 49.0097 38.6793 46.7938 38.1134C46.0148 37.9287 45.2473 37.6804 44.4568 37.5014C42.9564 37.1203 41.4619 36.7045 39.9558 36.3292Z" fill="#E2231A"/>
</g>
<defs>
<clipPath id="clip0_368_67">
<rect width="88" height="88" fill="white" transform="translate(0.987549 0.857788)"/>
</clipPath>
</defs>
</svg>
