<svg width="88" height="92" viewBox="0 0 88 92" fill="none" xmlns="http://www.w3.org/2000/svg">
<path fill-rule="evenodd" clip-rule="evenodd" d="M20.1793 67.7246C17.983 67.267 15.3293 66.5347 13.133 64.521C8.09998 60.036 6.54431 52.622 3.06694 54.5441C-0.501945 56.4663 -0.410435 68.4569 10.7538 72.1181C14.5972 73.3995 18.0746 73.3995 20.9114 73.308C21.6434 73.308 27.9576 72.6673 30.1538 69.5552C32.3501 66.4432 30.7944 65.6194 30.0623 65.2533C29.2387 64.7956 23.2906 68.2738 20.1793 67.7246Z" fill="#FFAB19" stroke="#001026" stroke-linecap="round" stroke-linejoin="round"/>
<path fill-rule="evenodd" clip-rule="evenodd" d="M3.6162 54.7272C1.786 55.2764 0.870901 59.1207 1.786 62.3243C2.7011 65.5278 4.16525 67.1754 5.35488 68.3653C5.17186 67.7246 4.80582 65.7109 6.36149 64.521C8.2832 62.965 11.6691 63.7888 11.6691 63.7888C11.6691 63.7888 8.83226 60.3106 7.3681 57.8392C5.90394 55.734 5.44639 54.3611 3.6162 54.7272Z" fill="white"/>
<path fill-rule="evenodd" clip-rule="evenodd" d="M34.6379 74.7725C32.9907 75.8709 27.3171 79.8982 20.0878 82.1865L19.7218 82.278C19.3558 82.3696 19.1727 82.8272 19.3558 83.1934C20.9114 85.3901 23.7482 89.7836 18.7152 91.3396C13.8652 92.8956 4.80569 79.9898 8.6491 76.6031C10.3878 75.3217 11.9435 75.9624 12.767 76.3285C13.2246 76.5116 13.6821 76.5116 14.1397 76.4201C15.2378 76.0539 17.251 75.3217 18.8067 74.4979C22.7416 72.4842 23.6567 71.6605 25.4869 70.2875C27.3171 68.9145 31.5266 65.5279 34.9124 68.4569C37.8407 70.9282 36.1936 73.6741 34.6379 74.7725ZM49.188 55.7341C49.6455 56.1002 55.2276 62.6904 57.0578 61.0429C59.254 59.1207 62.2739 55.3679 65.5682 58.3885C68.8626 61.409 62.6399 66.5347 59.9861 67.9077C53.6719 70.7452 48.5474 65.3448 47.4493 63.8803C46.3512 62.4158 44.4294 59.9445 44.4294 57.5647C44.521 55.0018 47.6323 54.3611 49.188 55.7341Z" fill="#FFAB19" stroke="#001026" stroke-linecap="round" stroke-linejoin="round"/>
<path fill-rule="evenodd" clip-rule="evenodd" d="M42.4163 70.379C43.5144 69.5552 44.6125 68.1823 46.0767 66.077C47.2663 64.338 48.5474 60.9513 48.5474 60.9513C49.371 58.663 49.9201 54.2695 46.9002 54.3611C44.887 54.4526 43.0568 54.178 39.9455 53.7204C34.4549 52.622 33.4483 51.8897 31.1606 55.6425C28.6898 60.036 22.3756 63.2396 30.1539 70.8366C30.1539 70.8366 34.6379 74.3148 40.037 79.6236C43.6974 83.1933 49.4625 88.3191 51.4757 90.0581C51.9333 90.4243 52.4823 90.6073 53.0314 90.6989C61.9079 91.5226 68.4966 90.6073 68.4966 86.6715C68.4966 80.0813 55.4107 82.3696 55.4107 82.3696C55.4107 82.3696 51.2012 78.7998 49.2795 77.0608L42.4163 70.379Z" fill="#FFAB19" stroke="#001026" stroke-linecap="round" stroke-linejoin="round"/>
<path fill-rule="evenodd" clip-rule="evenodd" d="M46.4426 64.2464C46.4426 64.2464 48.1813 61.9581 44.2464 59.4868C40.1284 56.8324 38.5727 59.7614 36.9256 61.9581C35.0954 64.7956 36.9256 66.1686 38.7558 67.8161C40.2199 69.1891 41.5926 70.2875 41.5926 70.2875C41.5926 70.2875 44.4294 68.3653 46.4426 64.2464Z" fill="white"/>
<path fill-rule="evenodd" clip-rule="evenodd" d="M27.7744 62.7819C29.7877 65.3448 32.899 68.5484 28.9641 71.2028C23.565 74.2233 19.081 65.0702 18.1659 61.8666C17.3423 59.0292 19.7216 57.1985 21.7348 55.6425C25.6697 52.805 28.9641 50.2422 32.6245 51.6151C37.2 53.2627 33.9056 56.9239 31.6179 58.5715C30.2452 59.5783 28.8726 60.6767 27.866 61.3174C27.5914 61.7751 27.4999 62.3243 27.7744 62.7819Z" fill="#FFAB19" stroke="#001026" stroke-linecap="round" stroke-linejoin="round"/>
<path fill-rule="evenodd" clip-rule="evenodd" d="M48.7302 8.41254C46.6255 8.04642 44.4293 7.86336 41.867 8.04642C37.566 8.22948 33.4481 9.78551 33.4481 9.78551L22.3754 2.55456C22.0093 2.3715 21.5518 2.64609 21.6433 3.01222L23.565 19.3963C24.1141 18.664 13.865 31.1122 20.3622 41.5468C26.8594 51.9813 40.6774 56.6494 57.8812 53.2627C75.085 49.8761 79.1115 39.9907 78.0134 34.7735C76.9152 29.5562 70.4181 27.634 70.4181 27.634C70.4181 27.634 70.3265 23.5152 67.3982 18.4809C65.6595 15.4604 59.8029 11.1585 59.8029 11.1585L57.4237 1.36466C57.3321 0.998535 56.8746 0.907004 56.6001 1.09007L48.7302 8.41254Z" fill="#FFAB19" stroke="#001026"/>
<path fill-rule="evenodd" clip-rule="evenodd" d="M70.1436 28.0002C70.1436 28.0002 76.4578 29.6477 77.5559 34.865C78.654 40.0823 74.2616 49.51 57.2407 52.8051C35.0953 57.3816 24.5717 44.2012 30.7029 34.4989C36.834 24.7051 47.3577 33.0344 55.0445 32.4852C61.6332 32.0275 62.3653 26.2611 70.1436 28.0002Z" fill="white"/>
<path fill-rule="evenodd" clip-rule="evenodd" d="M41.3179 37.794C41.3179 37.4279 41.684 37.1533 42.05 37.2448C43.7887 37.8855 48.7302 39.35 54.2208 39.7161C59.1624 39.9907 62.0907 39.7161 63.4633 39.4415C63.9209 39.35 64.2869 39.8077 64.1039 40.2653C63.2803 42.7366 59.8029 49.6015 50.1944 49.0523C41.867 48.137 41.0434 42.279 41.3179 37.794Z" fill="white" stroke="#001026" stroke-linecap="round" stroke-linejoin="round"/>
<path d="M76.0918 32.5767C76.0918 32.5767 82.6805 32.4852 86.9815 29.007M76.4578 37.9771C76.4578 37.9771 80.0267 39.7161 85.7918 39.2585" stroke="#001026" stroke-linecap="round" stroke-linejoin="round"/>
<path fill-rule="evenodd" clip-rule="evenodd" d="M54.6785 30.1054C56.6002 30.1054 58.6134 30.2884 58.7049 30.9292C58.7964 32.2106 57.4238 34.7735 55.9596 34.865C54.3124 35.048 50.469 32.7598 50.469 31.2953C50.3775 30.1969 52.8483 30.1054 54.6785 30.1054Z" fill="#001026" stroke="#001026" stroke-linecap="round" stroke-linejoin="round"/>
<path d="M13.499 28.7324C13.499 28.7324 21.3689 31.2953 24.5717 34.1327M14.1396 37.8855C14.1396 37.8855 20.9113 38.8924 24.8462 37.3363" stroke="#001026" stroke-linecap="round" stroke-linejoin="round"/>
<path fill-rule="evenodd" clip-rule="evenodd" d="M65.4766 19.3963C68.1304 23.5152 68.2219 28.1832 65.6597 29.8308C63.0974 31.4784 58.8879 29.5562 56.1426 25.4373C53.4889 21.3184 53.3973 16.6503 55.9596 15.0028C58.5219 13.2637 62.8229 15.2774 65.4766 19.3963Z" fill="white" stroke="#001026" stroke-linecap="round" stroke-linejoin="round"/>
<path fill-rule="evenodd" clip-rule="evenodd" d="M65.1105 24.6135C65.1105 25.6204 64.3784 26.4441 63.4633 26.4441C62.5482 26.4441 61.8162 25.6204 61.8162 24.6135C61.8162 23.6067 62.5482 22.7829 63.4633 22.7829C64.3784 22.7829 65.1105 23.6067 65.1105 24.6135Z" fill="#001026"/>
<path fill-rule="evenodd" clip-rule="evenodd" d="M42.7822 21.9591C45.5275 25.9865 45.3445 30.9292 42.8737 32.6683C39.8539 34.4073 35.8275 33.1259 33.0822 29.0985C30.2454 25.0712 30.0623 19.8539 32.8991 17.8402C35.736 15.735 40.0369 17.9318 42.7822 21.9591Z" fill="white" stroke="#001026" stroke-linecap="round" stroke-linejoin="round"/>
<path fill-rule="evenodd" clip-rule="evenodd" d="M42.2333 27.2679C42.2333 28.2748 41.5012 29.0986 40.5861 29.0986C39.671 29.0986 38.939 28.2748 38.939 27.2679C38.939 26.2611 39.671 25.4373 40.5861 25.4373C41.5012 25.5288 42.2333 26.2611 42.2333 27.2679Z" fill="#001026"/>
</svg>
